<?xml version="1.0" encoding="UTF-8"?>
<svg width="20" height="20" viewBox="0 0 20 20" fill="none" xmlns="http://www.w3.org/2000/svg">
  <path d="M19.2 10.2c0-.7-.1-1.3-.2-1.9H10v3.7h5.2c-.2 1.1-.9 2.1-1.9 2.7v2.3h3.1c1.8-1.7 2.8-4.1 2.8-6.8z" fill="#4285F4"/>
  <path d="M10 19.2c2.6 0 4.7-.9 6.3-2.3l-3.1-2.3c-.9.6-1.9.9-3.2.9-2.5 0-4.6-1.7-5.4-3.9H1.4v2.3c1.6 3.1 4.8 5.3 8.6 5.3z" fill="#34A853"/>
  <path d="M4.6 11.6c-.2-.6-.3-1.2-.3-1.8s.1-1.2.3-1.8V5.7H1.4C.5 7.1 0 8.7 0 10.2s.5 3.1 1.4 4.5l3.2-2.3z" fill="#FBBC05"/>
  <path d="M10 4.2c1.4 0 2.7.5 3.7 1.4L16.5 3c-1.6-1.5-3.7-2.4-6.3-2.4-3.8 0-7 2.2-8.6 5.3l3.2 2.3c.8-2.2 2.9-3.9 5.4-3.9z" fill="#EA4335"/>
</svg> 